# xmcd
#
# Track frame offsets:
#	150
#	13207
#	25895
#	37105
#	47820
#	67593
#	84880
#	102115
#	116569
#	128154
#	144082
#	158551
#	168453
#	181271
#	196270
#	209340
#	222212
#	239426
#	249280
#	258459
#	272716
#	287081
#	300259
#	313141
#	330872
#
# Disc length: 4673 seconds
# Revision: 0
# Processed by: cddbd v1.5.2PL0 Copyright (c) Steve Scherf et al.
# Submitted via: dBpowerAMP V12.0
#
DISCID=50123f19
DTITLE=Dr. Feelgood - Taking No Prisoners (With Gypie 1977-1981)
DYEAR=2013
DGENRE=British R&B
TTITLE0=You'll Be Mine (The Paddocks, Canvey Island, 10th June 1977)
TTITLE1=My Buddy Buddy Friends (The Paddocks, Canvey Island, 10th June 1977)
TTITLE2=Looking Back (The Paddocks, Canvey Island, 10th June 1977)
TTITLE3=Homework (The Paddocks, Canvey Island, 10th June 1977)
TTITLE4=You Upset Me Baby (The Paddocks, Canvey Island, 10th June 1977)
TTITLE5=Hey Mama, Keep Your Big Mouth Shut (The Paddocks, Canvey Island, 10th June 1977)
TTITLE6=Cheque Book (The Paddocks, Canvey Island, 10th June 1977)
TTITLE7=Back In The Night (The Paddocks, Canvey Island, 10th June 1977)
TTITLE8=Lucky Seven (The Paddocks, Canvey Island, 10th June 1977)
TTITLE9=Lights Out (The Paddocks, Canvey Island, 10th June 1977)
TTITLE10=Sneaking Suspicion (The Paddocks, Canvey Island, 10th June 1977)
TTITLE11=Great Balls Of Fire (The Paddocks, Canvey Island, 10th June 1977)
TTITLE12=Take A Tip (Live At The Pavillion, Hemel Hempstead)
TTITLE13=Every Kind Of Vice (Live At The Pavillion, Hemel Hempstead)
TTITLE14=Down At The Doctors (Live At The Pavillion, Hemel Hempstead)
TTITLE15=Baby Jane (Live At The Pavillion, Hemel Hempstead)
TTITLE16=Sugar Shaker (Live At The Pavillion, Hemel Hempstead)
TTITLE17=Things Get Better (Live At The Pavillion, Hemel Hempstead)
TTITLE18=She's A Windup (Live At The Pavillion, Hemel Hempstead)
TTITLE19=Ninety Nine And A Half (Won't Do) (Live At Crocs, Rayleigh, Essex)
TTITLE20=My Buddy Buddy Friends (Live At Crocs, Rayleigh, Essex)
TTITLE21=Milk And Alcohol (Live At Crocs, Rayleigh, Essex)
TTITLE22=Matchbox (Live At Crocs, Rayleigh, Essex)
TTITLE23=As Long As The Price Is Right (Live At Crocs, Rayleigh, Essex)
TTITLE24=Night Time (Live At Crocs, Rayleigh, Essex)
EXTD=
EXTT0=
EXTT1=
EXTT2=
EXTT3=
EXTT4=
EXTT5=
EXTT6=
EXTT7=
EXTT8=
EXTT9=
EXTT10=
EXTT11=
EXTT12=
EXTT13=
EXTT14=
EXTT15=
EXTT16=
EXTT17=
EXTT18=
EXTT19=
EXTT20=
EXTT21=
EXTT22=
EXTT23=
EXTT24=
PLAYORDER=
